# xmcd
#
# Track frame offsets: 
#        150
#        17160
#        32910
#        54045
#        68805
#        89072
#        102840
#        120110
#        132422
#        146175
#        160532
#        179352
#        196545
#        212160
#        228285
#        246590
#        263995
#        282320
#        299197
#        319455
#
# Disc length: 4531 seconds
#
# Revision: 0
# Processed by: cddbd v1.5.2PL0 Copyright (c) Steve Scherf et al.
# Submitted via: ExactAudioCopy v0.99pb4
#
DISCID=3011b114
DTITLE=Kimura Yoshio And Sano Hiromi - Kettaiban! 100 [CD1)
DYEAR=2003
DGENRE=Instrumental
TTITLE0=Mistress
TTITLE1=Your Blues
TTITLE2=Vietnam s Amagi
TTITLE3=Longing For Min
TTITLE4=Me Life
TTITLE5=Song Of The Female Mind
TTITLE6=North Of The Inn
TTITLE7=Love You
TTITLE8=Lake Mashu In Fog
TTITLE9=Good Night Baby
TTITLE10=Love Thistle
TTITLE11=Love Song Spell
TTITLE12=I Know Too Much
TTITLE13=Drafts
TTITLE14=And Love Affair 
TTITLE15=Atonement
TTITLE16=Letting Go With The Flow At
TTITLE17=Courtesy Michi
TTITLE18=Silent Hill
TTITLE19=Snow Country
EXTD=
EXTT0=
EXTT1=
EXTT2=
EXTT3=
EXTT4=
EXTT5=
EXTT6=
EXTT7=
EXTT8=
EXTT9=
EXTT10=
EXTT11=
EXTT12=
EXTT13=
EXTT14=
EXTT15=
EXTT16=
EXTT17=
EXTT18=
EXTT19=
PLAYORDER=
